<!-- <svg xmlns="http://www.w3.org/2000/svg" xmlns:xlink="http://www.w3.org/1999/xlink" width="15" height="15" viewBox="0 0 15 15"><path d="M99.7,96.188v6.459l10.73-6.548a.377.377,0,0,1,.567.323v14.156a.376.376,0,0,1-.567.323L99.7,104.353v6.459a.188.188,0,0,1-.187.188H96.188a.188.188,0,0,1-.187-.187V96.188A.188.188,0,0,1,96.188,96h3.328A.188.188,0,0,1,99.7,96.188Z" transform="translate(-96 -96)"/></svg> -->

<!-- <svg version="1.1" id="IconsRepoEditor" xmlns="http://www.w3.org/2000/svg" xmlns:xlink="http://www.w3.org/1999/xlink" x="0px" y="0px" width="50px" height="50px" viewBox="0 0 27.543 27.543" xml:space="preserve" fill="#000"> -->
    <!-- <path d="M27.542,26.643L15.993,15.092v11.551L3.124,13.771L15.993,0.9v11.55L27.543,0.9L27.542,26.643L27.542,26.643z M0,26.521h3 v-25.5H0V26.521z">
    </path> -->
    <!-- <path d="m427.712182,398.956115l-178.816127,-178.847093l0,178.847093l-199.254025,-199.300475l199.254025,-199.284991l0,178.83161l178.83161,-178.83161l-0.015483,398.585466l0,0zm-426.439844,-1.888957l46.449769,0l0,-394.823035l-46.449769,0l0,394.823035z"/> -->
<!-- </svg> -->

<svg xmlns="http://www.w3.org/2000/svg" xmlns:xlink="http://www.w3.org/1999/xlink" id="svgcontent" x="1128" y="402.5000000000001" viewBox="0 0 248 399" overflow="visible">
    <path d="M247.6237099407196,398.58546997677803 L48.3696899407196,199.28498997677804 L247.6237099407196,-2.3221969569497958e-8 L247.6237099407196,398.58546997677803 zM-5.9280395481309256e-8,396.69650997677803 L46.449769940719605,396.69650997677803 L46.449769940719605,1.8734699767780305 L-5.9280395481309256e-8,1.8734699767780305 L-5.9280395481309256e-8,396.69650997677803 z" fill="black"></path>
</svg>