<!-- <svg xmlns="http://www.w3.org/2000/svg" xmlns:xlink="http://www.w3.org/1999/xlink" width="15" height="15" viewBox="0 0 15 15"><defs><linearGradient id="a" y1="0.5" x2="1" y2="0.5" gradientUnits="objectBoundingBox"><stop offset="0" stop-color="#ee0979"/><stop offset="1" stop-color="#ff6a00"/></linearGradient></defs><path d="M107.3,96.188v6.459L96.567,96.1a.376.376,0,0,0-.567.323v14.156a.376.376,0,0,0,.567.323l10.73-6.548v6.459a.188.188,0,0,0,.188.188h3.328a.188.188,0,0,0,.188-.187V96.188a.188.188,0,0,0-.187-.187h-3.328A.188.188,0,0,0,107.3,96.188Z" transform="translate(-96 -96)"/></svg> -->
<svg xmlns="http://www.w3.org/2000/svg" xmlns:xlink="http://www.w3.org/1999/xlink" id="svgcontent" x="1128" y="402.5000000000001" viewBox="0 0 248 399">
    <path d="M247.6237099407196,398.58546997677803 L48.3696899407196,199.28498997677804 L247.6237099407196,-2.3221969569497958e-8 L247.6237099407196,398.58546997677803 zM-5.9280395481309256e-8,396.69650997677803 L46.449769940719605,396.69650997677803 L46.449769940719605,1.8734699767780305 L-5.9280395481309256e-8,1.8734699767780305 L-5.9280395481309256e-8,396.69650997677803 z" fill="black" transform="rotate(180 123.81185150146484,199.29273986816406) "></path>
</svg>